<svg width="20" height="14" viewBox="0 0 20 14" fill="none" xmlns="http://www.w3.org/2000/svg">
<path d="M20 7C20 7.15913 19.9328 7.31174 19.813 7.42426C19.6933 7.53679 19.531 7.6 19.3617 7.6H0.638298C0.469011 7.6 0.306657 7.53679 0.186953 7.42426C0.067249 7.31174 0 7.15913 0 7C0 6.84087 0.067249 6.68826 0.186953 6.57574C0.306657 6.46321 0.469011 6.4 0.638298 6.4H19.3617C19.531 6.4 19.6933 6.46321 19.813 6.57574C19.9328 6.68826 20 6.84087 20 7ZM0.638298 1.2H19.3617C19.531 1.2 19.6933 1.13679 19.813 1.02426C19.9328 0.911742 20 0.75913 20 0.6C20 0.44087 19.9328 0.288258 19.813 0.175736C19.6933 0.063214 19.531 0 19.3617 0H0.638298C0.469011 0 0.306657 0.063214 0.186953 0.175736C0.067249 0.288258 0 0.44087 0 0.6C0 0.75913 0.067249 0.911742 0.186953 1.02426C0.306657 1.13679 0.469011 1.2 0.638298 1.2ZM19.3617 12.8H0.638298C0.469011 12.8 0.306657 12.8632 0.186953 12.9757C0.067249 13.0883 0 13.2409 0 13.4C0 13.5591 0.067249 13.7117 0.186953 13.8243C0.306657 13.9368 0.469011 14 0.638298 14H19.3617C19.531 14 19.6933 13.9368 19.813 13.8243C19.9328 13.7117 20 13.5591 20 13.4C20 13.2409 19.9328 13.0883 19.813 12.9757C19.6933 12.8632 19.531 12.8 19.3617 12.8Z" fill="#E1E8F0"/>
</svg>
